<svg version="1.1" viewBox="0 0 16 16" width="12" height="12" xmlns="http://www.w3.org/2000/svg">
 <g fill-rule="evenodd" opacity="1">
  <circle cx="8" cy="8" r="8" fill="#000" opacity=".6"/>
  <circle cx="8" cy="8" r="7" fill="#6E4426"/>
  <path d="M 8.0,3.5 C 6.236,3.5 4.708,4.517 3.97,5.996 C 3.417,6.153 2.942,6.343 2.554,6.567 C 2.258,6.738 2.009,6.93 1.819,7.163 C 1.63,7.397 1.5,7.687 1.5,7.999 C 1.5,8.313 1.63,8.603 1.819,8.837 C 2.009,9.07 2.258,9.262 2.554,9.433 C 2.942,9.657 3.417,9.847 3.97,10.004 C 4.708,11.483 6.236,12.5 8.0,12.5 C 9.764,12.5 11.292,11.483 12.03,10.004 C 12.583,9.847 13.058,9.657 13.446,9.433 C 13.742,9.262 13.991,9.07 14.181,8.837 C 14.37,8.603 14.5,8.313 14.5,8.0 C 14.5,7.687 14.37,7.397 14.181,7.163 C 13.991,6.93 13.742,6.738 13.446,6.567 C 13.058,6.343 12.583,6.153 12.03,5.996 C 11.292,4.517 9.764,3.5 8.0,3.5 M 3.054,7.433 C 3.2,7.349 3.374,7.266 3.574,7.186 C 3.532,7.412 3.508,7.643 3.502,7.88 C 3.563,7.917 3.679,7.974 3.834,8.028 C 4.206,8.157 4.804,8.282 5.552,8.369 C 5.552,8.369 5.564,8.37 5.564,8.37 C 7.061,8.542 8.939,8.542 10.436,8.37 C 10.436,8.37 10.448,8.369 10.448,8.369 C 11.196,8.282 11.794,8.157 12.166,8.028 C 12.321,7.974 12.437,7.917 12.498,7.88 C 12.492,7.643 12.468,7.412 12.426,7.186 C 12.626,7.266 12.8,7.349 12.946,7.433 C 13.168,7.561 13.321,7.691 13.404,7.793 C 13.487,7.895 13.5,7.954 13.5,7.999 C 13.558,8.0 13.596,8.0 13.614,8.0 C 13.646,8.0 13.609,8.0 13.5,8.0 C 13.499,8.157 13.444,8.303 13.372,8.41 C 13.3,8.518 13.214,8.596 13.124,8.663 C 12.944,8.796 12.739,8.888 12.494,8.972 C 12.005,9.142 11.358,9.27 10.564,9.362 C 10.564,9.362 10.551,9.363 10.551,9.363 C 8.961,9.547 7.039,9.547 5.449,9.363 C 5.449,9.363 5.436,9.362 5.436,9.362 C 4.642,9.27 3.995,9.142 3.506,8.972 C 3.261,8.888 3.056,8.796 2.876,8.663 C 2.786,8.596 2.7,8.518 2.628,8.41 C 2.556,8.303 2.501,8.157 2.5,8.002 C 2.5,7.954 2.513,7.895 2.596,7.793 C 2.679,7.691 2.832,7.561 3.054,7.433" transform="translate(1.6000,1.6000) scale(0.8)" fill="#000"/>
 </g>
</svg>
