<svg xmlns="http://www.w3.org/2000/svg" width="33" height="28" viewBox="0 0 1240 1052.12"><path fill="#fff" d="M2.55 298.16L620 2.85l617.3 295.76-240 479.28h-756.75z"/><path fill="none" stroke="#1f1a17" stroke-width="42" stroke-linejoin="round" stroke-miterlimit="10" d="M55.064 314.366L620.1 52.3l565 262.14-219.9 425.1H273.171z"/><path fill="#1f1a17" transform="matrix(0.109203 0 0 -0.109203 472.58 335.0)" d="M963 339H399L281 0H18L568 1456H795L1346 0H1082ZM470 543H892L681 1147Z"/><path fill="#1f1a17" transform="matrix(0.109203 0 0 -0.109203 621.42 335.0)" d="M1259 474Q1237 241 1087.0 110.5Q937 -20 688 -20Q514 -20 381.5 62.5Q249 145 177.0 297.0Q105 449 102 650V786Q102 992 175.0 1149.0Q248 1306 384.5 1391.0Q521 1476 700 1476Q941 1476 1088.0 1345.0Q1235 1214 1259 975H1007Q989 1132 915.5 1201.5Q842 1271 700 1271Q535 1271 446.5 1150.5Q358 1030 356 797V668Q356 432 440.5 308.0Q525 184 688 184Q837 184 912.0 251.0Q987 318 1007 474Z"/></svg>
