<svg xmlns="http://www.w3.org/2000/svg" width="46" height="39" viewBox="0 0 1240 1052.12"><path fill="#fff" d="M2.55 298.16L620 2.85l617.3 295.76-240 479.28h-756.75z"/><path fill="none" stroke="#1f1a17" stroke-width="42" stroke-linejoin="round" stroke-miterlimit="10" d="M55.064 314.366L620.1 52.3l565 262.14-219.9 425.1H273.171z"/><path fill="#1f1a17" transform="matrix(0.109203 0 0 -0.109203 485.52 335.0)" d="M148 0V1456H578Q771 1456 920.5 1370.0Q1070 1284 1152.0 1126.0Q1234 968 1234 764V691Q1234 484 1151.5 327.0Q1069 170 916.5 85.0Q764 0 567 0ZM401 1252V202H566Q765 202 871.5 326.5Q978 451 980 684V765Q980 1002 877.0 1127.0Q774 1252 578 1252Z"/><path fill="#1f1a17" transform="matrix(0.109203 0 0 -0.109203 631.63 335.0)" d="M987 617H401V0H148V1456H1073V1252H401V819H987Z"/></svg>
