<svg xmlns="http://www.w3.org/2000/svg" width="33" height="28" viewBox="0 0 1240 1052.12"><path fill="#fff" d="M2.55 298.16L620 2.85l617.3 295.76-240 479.28h-756.75z"/><path fill="none" stroke="#1f1a17" stroke-width="42" stroke-linejoin="round" stroke-miterlimit="10" d="M55.064 314.366L620.1 52.3l565 262.14-219.9 425.1H273.171z"/><path fill="#1f1a17" transform="matrix(0.109203 0 0 -0.109203 474.10 335.0)" d="M401 541V0H148V1456H705Q949 1456 1092.5 1329.0Q1236 1202 1236 993Q1236 779 1095.5 660.0Q955 541 702 541ZM401 744H705Q840 744 911.0 807.5Q982 871 982 991Q982 1109 910.0 1179.5Q838 1250 712 1252H401Z"/><path fill="#1f1a17" transform="matrix(0.109203 0 0 -0.109203 617.05 335.0)" d="M963 339H399L281 0H18L568 1456H795L1346 0H1082ZM470 543H892L681 1147Z"/></svg>
