<svg xmlns="http://www.w3.org/2000/svg" width="46" height="39" viewBox="0 0 1240 1052.12"><path fill="#fff" d="M2.55 298.16L620 2.85l617.3 295.76-240 479.28h-756.75z"/><path fill="none" stroke="#1f1a17" stroke-width="42" stroke-linejoin="round" stroke-miterlimit="10" d="M55.064 314.366L620.1 52.3l565 262.14-219.9 425.1H273.171z"/><path fill="#1f1a17" transform="matrix(0.109203 0 0 -0.109203 445.98 335.0)" d="M476 1456 896 340 1315 1456H1642V0H1390V480L1415 1122L985 0H804L375 1121L400 480V0H148V1456Z"/><path fill="#1f1a17" transform="matrix(0.109203 0 0 -0.109203 641.79 335.0)" d="M1264 189Q1185 86 1045.0 33.0Q905 -20 727 -20Q544 -20 403.0 63.0Q262 146 185.5 300.5Q109 455 106 661V775Q106 1105 264.0 1290.5Q422 1476 705 1476Q948 1476 1091.0 1356.0Q1234 1236 1263 1010H1015Q973 1273 710 1273Q540 1273 451.5 1150.5Q363 1028 360 791V679Q360 443 459.5 312.5Q559 182 736 182Q930 182 1012 270V555H712V747H1264Z"/></svg>
