<svg xmlns="http://www.w3.org/2000/svg" width="33" height="28" viewBox="0 0 1240 1052.12"><path fill="#fff" d="M2.55 298.16L620 2.85l617.3 295.76-240 479.28h-756.75z"/><path fill="none" stroke="#1f1a17" stroke-width="42" stroke-linejoin="round" stroke-miterlimit="10" d="M55.064 314.366L620.1 52.3l565 262.14-219.9 425.1H273.171z"/><path fill="#1f1a17" transform="matrix(0.109203 0 0 -0.109203 489.28 335.0)" d="M999 650H401V202H1100V0H148V1456H1093V1252H401V850H999Z"/><path fill="#1f1a17" transform="matrix(0.109203 0 0 -0.109203 615.74 335.0)" d="M909 375Q909 471 841.5 523.0Q774 575 598.0 628.0Q422 681 318 746Q119 871 119 1072Q119 1248 262.5 1362.0Q406 1476 635 1476Q787 1476 906.0 1420.0Q1025 1364 1093.0 1260.5Q1161 1157 1161 1031H909Q909 1145 837.5 1209.5Q766 1274 633 1274Q509 1274 440.5 1221.0Q372 1168 372 1073Q372 993 446.0 939.5Q520 886 690.0 835.5Q860 785 963.0 720.5Q1066 656 1114.0 572.5Q1162 489 1162 377Q1162 195 1022.5 87.5Q883 -20 644 -20Q486 -20 353.5 38.5Q221 97 147.5 200.0Q74 303 74 440H327Q327 316 409.0 248.0Q491 180 644 180Q776 180 842.5 233.5Q909 287 909 375Z"/></svg>
