<svg xmlns="http://www.w3.org/2000/svg" width="34" height="38" viewBox="0 0 872.90619 982.02"><g transform="scale(1,0.741)"><g transform="translate(-28.84375,-11.40625)"><path fill="#fff" d="m 33.84375,16.40625 c 0,0 0,566.4375 0,849.65625 0,2.71875 0,8.15625 0,8.15625 0.330896,7.65855 1.598328,15.5183 3.34375,23 2.904615,12.45054 7.887049,24.08991 12.15625,32.9375 4.269201,8.84759 12.270326,24.48593 21.875,36.375 13.386497,16.57037 35.27241,32.36423 45.65625,38.34375 10.38384,5.9795 23.79337,12.608 38.8125,17.0312 15.01913,4.4233 31.66352,6.5313 47.28125,6.5313 10.60205,0 21.69367,-1.071 36,-3.9063 14.30628,-2.8351 35.34405,-3.7952 48,-3.5624 12.65595,0.2327 20.27417,0.3606 29.84375,0.4374 9.56958,0.077 20.78368,0.7396 30.78125,2.3126 22.41354,3.5263 44.06515,11.7589 58.46875,19.3437 14.40359,7.5849 23.89412,14.0416 35.75,23.0313 7.13537,5.4102 16.77217,13.763 19.78125,16.5624 3.00908,2.7995 3.6875,3.5 3.6875,3.5 l 4.5,-4.2812 c 5.71271,-5.4349 12.15639,-10.616 18.96875,-15.7812 11.85588,-8.9897 21.34641,-15.4464 35.75,-23.0313 14.4036,-7.5848 36.05521,-15.8173 58.46875,-19.3437 9.99757,-1.573 21.21167,-2.2356 30.78125,-2.3126 9.56958,-0.077 17.1878,-0.2047 29.84375,-0.4374 12.65595,-0.2328 33.66244,0.7273 47.96875,3.5624 14.30631,2.8352 25.4292,3.9063 36.03125,3.9063 15.61773,0 32.53676,-2.189 47.28125,-6.5313 15.29377,-4.504 28.42866,-11.0517 38.8125,-17.0312 10.38384,-5.97952 32.26975,-21.77338 45.65625,-38.34375 9.60467,-11.88907 17.6058,-27.52741 21.875,-36.375 4.2692,-8.84759 9.25164,-20.48696 12.15625,-32.9375 1.74543,-7.4817 3.1593,-18.47417 3.34375,-23 l 0.0312,-7.3125 0,-850.5 z"/><path fill="#1f1a17" d="m 55.40625,37.96875 0,15 0,813.09375 c 0,1.7991 -0.127656,4.31416 0.03125,7.59375 0.234359,4.83684 1.122409,11.54567 2.78125,18.65625 2.378699,10.19622 6.592884,20.24203 10.5625,28.46875 4.197202,8.69838 11.329978,22.42244 19.21875,32.1875 11.457529,14.18261 29.68573,27.49523 39.625,33.21875 9.4801,5.45909 21.34108,11.22588 34.15625,15 12.7667,3.7599 27.38576,5.6875 41.1875,5.6875 9.05171,0 18.61539,-0.8906 31.78125,-3.5 17.76799,-3.52111 38.07001,-4.23649 52.625,-3.96875 12.63754,0.23236 20.1194,0.36147 29.59375,0.4375 10.50232,0.0845 22.37415,0.73825 33.96875,2.56245 25.57357,4.0235 48.38352,12.7301 65.15625,21.5626 15.32629,8.0707 26.51048,15.6255 38.75,24.9062 l 0,0.031 c -0.0103,-0.01 0.3688,0.3298 1.28125,1.0313 l 9.125,7 9.125,-6.9687 c 0.97089,-0.741 1.42888,-1.127 1.34375,-1.0626 l 0,-0.031 c 12.23952,-9.2807 23.42371,-16.8355 38.75,-24.9062 16.77285,-8.8325 39.58294,-17.539 65.15625,-21.5626 11.59457,-1.8242 23.46637,-2.47795 33.96875,-2.56245 9.47468,-0.0761 16.95634,-0.20514 29.59375,-0.4375 14.55286,-0.26769 34.83396,0.44939 52.59375,3.96875 13.16147,2.6083 22.75869,3.5 31.8125,3.5 13.77487,0 28.68173,-2.0045 41.1875,-5.6875 13.0844,-3.85334 24.63944,-9.51977 34.15625,-15 9.93926,-5.72351 28.16747,-19.03612 39.625,-33.21875 7.88876,-9.76506 15.02155,-23.48913 19.21875,-32.1875 3.96962,-8.22673 8.18381,-18.27253 10.5625,-28.46875 0.80191,-3.43735 1.3068,-7.0822 1.8125,-10.6875 0.25285,-1.80265 0.46317,-3.47731 0.625,-4.75 0.0809,-0.63635 0.168,-1.16336 0.21875,-1.59375 0.0254,-0.2152 0.0409,-0.39054 0.0625,-0.59375 0.002,0.005 0.0293,-0.007 0.0312,0 0.0172,-0.0861 0.0498,-0.43294 0.0625,-1.625 0.023,-2.15481 0.023,-4.23543 0.0312,-6.25 l 0,-0.0312 0,-0.0312 0,-813.78125 0,-15 -15,0 -789.78125,0 -15,0 z m 30,30 759.78125,0 0,798.71875 0,0.0625 c -0.007,1.80832 -0.0172,3.54698 -0.0312,5.25 -0.0348,0.2898 -0.0647,0.61918 -0.125,1.09375 -0.14491,1.13961 -0.36132,2.71795 -0.59375,4.375 -0.46485,3.3141 -1.15659,7.49692 -1.28125,8.03125 -1.51723,6.50358 -5.03782,15.3027 -8.375,22.21875 -3.45674,7.16383 -11.43601,21.30574 -15.53125,26.375 -5.10181,6.31523 -30.23668,25.47424 -31.3125,26.09375 -8.14561,4.69063 -17.69505,9.31644 -27.65625,12.25 -8.82685,2.59953 -22.06219,4.4375 -32.6875,4.4375 -7.22345,0 -14.19487,-0.59798 -26,-2.9375 -21.15677,-4.19252 -43.02345,-4.82456 -58.96875,-4.53125 -12.62723,0.23218 -19.95603,0.3626 -29.28125,0.4375 -11.55332,0.093 -24.82474,0.80061 -38.40625,2.9375 -29.37595,4.62182 -55.0017,14.37383 -74.46875,24.625 -13.65152,7.18885 -24.57222,14.48345 -35.1875,22.15625 -10.61528,-7.6728 -21.53598,-14.9674 -35.1875,-22.15625 -19.46669,-10.25101 -45.0922,-20.00335 -74.46875,-24.625 -13.58148,-2.13689 -26.85287,-2.84457 -38.40625,-2.9375 -9.32463,-0.0748 -16.65377,-0.20532 -29.28125,-0.4375 -15.94499,-0.2933 -37.83075,0.3361 -59,4.53125 -11.81962,2.34255 -18.74228,2.9375 -25.96875,2.9375 -10.85136,0 -23.42382,-1.70924 -32.6875,-4.4375 -9.54371,-2.81066 -19.71033,-7.67437 -27.65625,-12.25 -1.07581,-0.6195 -26.21069,-19.77852 -31.3125,-26.09375 -4.09522,-5.06924 -12.074504,-19.21116 -15.53125,-26.375 -3.337174,-6.91604 -6.857755,-15.71513 -8.375,-22.21875 -0.982481,-4.21138 -2.039847,-13.45869 -2.03125,-13.28125 -0.06686,-1.37981 0.03125,-3.37201 0.03125,-6.15625 z"/></g></g><g transform="matrix(0.81 0 0 0.682 82.92 20.02)"><g transform="translate(-28.84375,-11.40625)"><path fill="#1f1a17" d="m 447.67901,366.6691 c 0,-30.80597 -16.88002,-54.43802 -46.42,-68.364 26.58598,-15.19199 39.668,-35.87003 39.668,-63.722 0,-40.51196 -33.76004,-71.318 -78.492,-71.318 l -107.188,0 0,282.74 107.188,0 c 12.65999,0 29.54001,-2.95401 39.668,-6.752 26.58598,-10.97199 45.576,-41.77803 45.576,-72.584 m -51.484,-129.976 c 0,13.08198 -5.90801,24.898 -16.036,32.916 -8.01799,5.90799 -13.92601,7.596 -26.586,7.596 l -53.594,0 0,-69.208 65.41,0 c 19.83398,0 30.806,9.70602 30.806,28.696 m 5.908,130.82 c 0,21.94397 -11.81602,32.916 -34.604,32.916 l -67.52,0 0,-77.648 56.548,0 c 9.706,0 12.66001,0 18.568,2.11 16.03599,5.90799 27.008,24.05402 27.008,42.622"/><path fill="#1f1a17" d="m 675.34668,446.0051 -49.796,-132.086 c 26.16397,-11.81599 43.888,-41.35603 43.888,-71.318 0,-28.69597 -17.72403,-58.65802 -42.622,-70.474 -13.92599,-6.752 -28.69602,-8.862 -50.64,-8.862 l -93.262,0 0,282.74 44.732,0 0,-123.224 53.594,0 45.576,123.224 48.53,0 m -50.64,-203.404 c 0,11.81598 -6.75201,23.632 -17.724,29.962 -7.17399,3.79799 -11.81602,4.642 -25.742,4.642 l -53.594,0 0,-69.208 53.594,0 c 14.76998,0 18.14601,0.844 25.742,5.064 10.97199,5.90799 17.724,17.72401 17.724,29.54"/></g></g></svg>
