<svg xmlns="http://www.w3.org/2000/svg" width="33" height="28" viewBox="0 0 1240 1052.12"><path fill="#fff" d="M2.55 298.16L620 2.85l617.3 295.76-240 479.28h-756.75z"/><path fill="none" stroke="#1f1a17" stroke-width="42" stroke-linejoin="round" stroke-miterlimit="10" d="M55.064 314.366L620.1 52.3l565 262.14-219.9 425.1H273.171z"/><path fill="#1f1a17" transform="matrix(0.109203 0 0 -0.109203 488.14 335.0)" d="M683 561H401V0H148V1456H660Q912 1456 1049.0 1343.0Q1186 1230 1186 1016Q1186 870 1115.5 771.5Q1045 673 919 620L1246 13V0H975ZM401 764H661Q789 764 861.0 828.5Q933 893 933 1005Q933 1122 866.5 1186.0Q800 1250 668 1252H401Z"/><path fill="#1f1a17" transform="matrix(0.109203 0 0 -0.109203 627.70 335.0)" d="M744 1456H996V435Q996 226 865.5 103.0Q735 -20 521 -20Q293 -20 169.0 95.0Q45 210 45 415H297Q297 299 354.5 240.5Q412 182 521 182Q623 182 683.5 249.5Q744 317 744 436Z"/></svg>
