<svg xmlns="http://www.w3.org/2000/svg" width="33" height="28" viewBox="0 0 1240 1052.12"><path fill="#fff" d="M2.55 298.16L620 2.85l617.3 295.76-240 479.28h-756.75z"/><path fill="none" stroke="#1f1a17" stroke-width="42" stroke-linejoin="round" stroke-miterlimit="10" d="M55.064 314.366L620.1 52.3l565 262.14-219.9 425.1H273.171z"/><path fill="#1f1a17" transform="matrix(0.109203 0 0 -0.109203 454.23 335.0)" d="M476 1456 896 340 1315 1456H1642V0H1390V480L1415 1122L985 0H804L375 1121L400 480V0H148V1456Z"/><path fill="#1f1a17" transform="matrix(0.109203 0 0 -0.109203 650.03 335.0)" d="M1200 1252H746V0H495V1252H45V1456H1200Z"/></svg>
