<svg xmlns="http://www.w3.org/2000/svg" width="46" height="39" viewBox="0 0 1240 1052.12"><path fill="#fff" d="M2.55 298.16L620 2.85l617.3 295.76-240 479.28h-756.75z"/><path fill="none" stroke="#1f1a17" stroke-width="42" stroke-linejoin="round" stroke-miterlimit="10" d="M55.064 314.366L620.1 52.3l565 262.14-219.9 425.1H273.171z"/><path fill="#1f1a17" transform="matrix(0.109203 0 0 -0.109203 475.03 335.0)" d="M148 0V1456H647Q894 1456 1023.0 1357.0Q1152 1258 1152 1062Q1152 962 1098.0 882.0Q1044 802 940 758Q1058 726 1122.5 637.5Q1187 549 1187 425Q1187 220 1055.5 110.0Q924 0 679 0ZM401 657V202H682Q801 202 868.0 261.0Q935 320 935 425Q935 652 703 657ZM401 843H649Q767 843 833.5 896.5Q900 950 900 1048Q900 1156 838.5 1204.0Q777 1252 647 1252H401Z"/><path fill="#1f1a17" transform="matrix(0.109203 0 0 -0.109203 616.12 335.0)" d="M963 339H399L281 0H18L568 1456H795L1346 0H1082ZM470 543H892L681 1147Z"/></svg>
